Coordinates
version=1
nRows=6
nColumns=107
inDegrees=yes

Units are S.I. units (second, meters, Newtons, ...)
If the header above contains a line with 'inDegrees', this indicates whether rotational values are in degrees (yes) or radians (no).

endheader
time	sternoclavicular_r2	sternoclavicular_r3	unrotscap_r3	unrotscap_r2	acromioclavicular_r2	acromioclavicular_r3	acromioclavicular_r1	unrothum_r1	unrothum_r3	unrothum_r2	elv_angle	shoulder_elv	shoulder1_r2	shoulder_rot	elbow_flexion	pro_sup	deviation	flexion	proximal_distal_r1	proximal_distal_r3	cmc_flexion	cmc_abduction	mp_flexion	ip_flexion	mcp2_flexion	mcp2_abduction	pm2_flexion	md2_flexion	mcp3_flexion	mcp3_abduction	pm3_flexion	md3_flexion	mcp4_flexion	mcp4_abduction	pm4_flexion	md4_flexion	mcp5_flexion	mcp5_abduction	pm5_flexion	md5_flexion	bicpt_tx	bicpt_ty	bicpt_tz	bicpt2_tx	bicpt2_ty	bicpt2_tz	ptpt_tx	ptpt_ty	ptpt_tz	FCUpt_tx	FCUpt_ty	FCUpt_tz	EDCpt_tx	EDCpt_ty	EDCpt_tz	APLpt_tx	APLpt_ty	APLpt_tz	FPLpt_tx	FPLpt_ty	FPLpt_tz	FPLpt2_tx	FPLpt2_ty	FPLpt2_tz	PEC1pt2_tx	PEC1pt2_ty	PEC1pt2_tz	PEC1pt3_tx	PEC1pt3_ty	PEC1pt3_tz	PEC2pt2_tx	PEC2pt2_ty	PEC2pt2_tz	PEC2pt3_tx	PEC2pt3_ty	PEC2pt3_tz	PEC3pt2_tx	PEC3pt2_ty	PEC3pt2_tz	PEC3pt3_tx	PEC3pt3_ty	PEC3pt3_tz	DELT2pt2a_tx	DELT2pt2a_ty	DELT2pt2a_tz	DELT2pt2_tx	DELT2pt2_ty	DELT2pt2_tz	LAT1pt2_tx	LAT1pt2_ty	LAT1pt2_tz	LAT1pt3_tx	LAT1pt3_ty	LAT1pt3_tz	LAT2pt2_tx	LAT2pt2_ty	LAT2pt2_tz	LAT2pt3_tx	LAT2pt3_ty	LAT2pt3_tz	LAT3pt2_tx	LAT3pt2_ty	LAT3pt2_tz	LAT3pt3_tx	LAT3pt3_ty	LAT3pt3_tz
      0.00000000	     -0.32011506	      0.13558563	     -0.13558563	      0.32011506	     -0.06481679	      0.52382649	      0.23545640	     -0.23545640	     -0.52382649	      0.06481679	    100.28866583	     75.79008693	     -1.75036742	    -30.03348253	     30.11459583	     80.62766712	      0.34380556	     -0.66950234	      0.36984344	     -0.33475117	     28.24077472	    -23.43560172	     -1.64641381	      8.50200829	     68.63590124	     10.66797409	     66.05821809	     39.73808832	     81.59627982	     -0.19903631	     73.82722455	     43.02904217	     75.77600824	    -11.99374922	     86.95747180	     34.95536228	     77.13498265	    -13.80407493	     80.68737937	      5.54850254	      0.00089610	     -0.03105159	     -0.00485596	      0.01476229	     -0.01838078	     -0.00197585	      0.00159253	     -0.06875220	     -0.00654499	      0.01212529	     -0.18241557	     -0.00005333	     -0.00967530	      0.00328764	     -0.00059252	      0.00030963	      0.00012385	      0.00061926	      0.00039633	      0.00118899	      0.00066881	     -0.00000589	     -0.00026297	     -0.00031557	      0.00248423	      0.00871587	      0.00606321	     -0.00812639	      0.01962123	     -0.01861069	      0.00248423	      0.00871587	      0.00606321	      0.00054737	      0.01818964	     -0.00955798	      0.00393365	      0.00484678	      0.01593260	      0.00000000	      0.00768146	      0.00000000	     -0.00711585	     -0.03288450	     -0.00633316	      0.01889323	     -0.00075823	     -0.00751479	     -0.00088422	      0.01482119	     -0.00606321	      0.00244213	      0.02138966	     -0.01768437	     -0.00593690	      0.01284222	     -0.00543163	     -0.01237906	      0.02711603	     -0.03035817	     -0.02324231	      0.01435802	     -0.00728428	     -0.01541066	      0.03132660	     -0.03793718
      0.03333333	     -0.31990289	      0.13549576	     -0.13549576	      0.31990289	     -0.06477383	      0.52347929	      0.23530034	     -0.23530034	     -0.52347929	      0.06477383	    100.23344225	     75.73985197	     -1.74940359	    -30.07127285	     30.28714307	     80.61516987	      0.34452944	     -0.67006084	      0.37041774	     -0.33503042	     28.31806873	    -23.39168566	     -1.59931477	      8.51231028	     68.63848178	     10.68517080	     66.11102040	     39.75949829	     81.54966831	     -0.16818232	     73.80714229	     43.02776780	     75.84249322	    -12.02549260	     86.95343440	     34.95281889	     77.15400094	    -13.85568279	     80.71114134	      5.55402132	      0.00090180	     -0.03107137	     -0.00485915	      0.01476336	     -0.01842765	     -0.00197785	      0.00159345	     -0.06875160	     -0.00654398	      0.01212389	     -0.18241597	     -0.00005360	     -0.00967380	      0.00328699	     -0.00059217	      0.00030957	      0.00012383	      0.00061913	      0.00039624	      0.00118873	      0.00066866	     -0.00000601	     -0.00026245	     -0.00031493	      0.00248259	      0.00871009	      0.00605919	     -0.00812100	      0.01960822	     -0.01859836	      0.00248259	      0.00871009	      0.00605919	      0.00054701	      0.01817758	     -0.00955164	      0.00393174	      0.00484357	      0.01592790	      0.00000000	      0.00767122	      0.00000000	     -0.00711114	     -0.03286271	     -0.00632466	      0.01890958	     -0.00075953	     -0.00753355	     -0.00088363	      0.01481136	     -0.00605919	      0.00244051	      0.02137549	     -0.01767265	     -0.00593296	      0.01283371	     -0.00542803	     -0.01237085	      0.02709806	     -0.03033804	     -0.02322691	      0.01434851	     -0.00727945	     -0.01540045	      0.03130583	     -0.03791204
      0.06666667	     -0.31878834	      0.13502369	     -0.13502369	      0.31878834	     -0.06454815	      0.52165547	      0.23448055	     -0.23448055	     -0.52165547	      0.06454815	    100.75740554	     75.47597276	     -1.75854847	    -31.96300831	     30.00841364	     81.77152460	      0.32566815	     -0.72533604	      0.35516708	     -0.36266802	     29.30583272	    -23.30713605	     -1.53700093	      7.48126348	     68.44675662	     11.14837254	     67.93769421	     41.43934141	     81.80707693	      0.52004496	     73.31563916	     43.64020084	     77.73423796	    -12.18358068	     85.03256249	     36.01980702	     77.23733140	    -13.92294855	     82.39381609	      5.48346927	      0.00089259	     -0.03103942	     -0.00485400	      0.01465658	     -0.01835193	     -0.00178765	      0.00150801	     -0.06880685	     -0.00663714	      0.01225500	     -0.18237839	     -0.00002595	     -0.00981256	      0.00334872	     -0.00062628	      0.00030154	      0.00012062	      0.00060308	      0.00038597	      0.00115791	      0.00065132	     -0.00000756	     -0.00025552	     -0.00030662	      0.00247394	      0.00867974	      0.00603808	     -0.00809271	      0.01953991	     -0.01853356	      0.00247394	      0.00867974	      0.00603808	      0.00054510	      0.01811425	     -0.00951837	      0.00392169	      0.00482670	      0.01590313	      0.00000000	      0.00761749	      0.00000000	     -0.00708636	     -0.03274821	     -0.00628005	      0.01972256	     -0.00082463	     -0.00847752	     -0.00088055	      0.01475976	     -0.00603808	      0.00243201	      0.02130101	     -0.01761108	     -0.00591229	      0.01278900	     -0.00540912	     -0.01232775	      0.02700365	     -0.03023235	     -0.02314598	      0.01429852	     -0.00725409	     -0.01534679	      0.03119676	     -0.03777995
      0.10000000	     -0.31882865	      0.13504077	     -0.13504077	      0.31882865	     -0.06455632	      0.52172144	      0.23451020	     -0.23451020	     -0.52172144	      0.06455632	    100.76201895	     75.48551748	     -1.75862899	    -31.96350608	     30.01925483	     81.77123028	      0.32569620	     -0.72535769	      0.35518999	     -0.36267884	     29.30670379	    -23.30692417	     -1.53641269	      7.48139217	     68.44646503	     11.14850976	     67.93827224	     41.43984335	     81.80515710	      0.52032089	     73.31552469	     43.64031482	     77.73548695	    -12.18382658	     85.03256532	     36.01992976	     77.23816534	    -13.92328444	     82.39421288	      5.48353240	      0.00089294	     -0.03104067	     -0.00485420	      0.01465657	     -0.01835488	     -0.00178767	      0.00150803	     -0.06880684	     -0.00663711	      0.01225498	     -0.18237840	     -0.00002594	     -0.00981252	      0.00334871	     -0.00062628	      0.00030152	      0.00012061	      0.00060304	      0.00038595	      0.00115785	      0.00065129	     -0.00000756	     -0.00025551	     -0.00030661	      0.00247425	      0.00868084	      0.00603885	     -0.00809373	      0.01954238	     -0.01853590	      0.00247425	      0.00868084	      0.00603885	      0.00054517	      0.01811654	     -0.00951957	      0.00392206	      0.00482731	      0.01590402	      0.00000000	      0.00761943	      0.00000000	     -0.00708726	     -0.03275235	     -0.00628166	      0.01972265	     -0.00082465	     -0.00847787	     -0.00088067	      0.01476162	     -0.00603885	      0.00243231	      0.02130371	     -0.01761330	     -0.00591304	      0.01279061	     -0.00540980	     -0.01232931	      0.02700706	     -0.03023617	     -0.02314891	      0.01430032	     -0.00725500	     -0.01534873	      0.03120071	     -0.03778473
      0.13333333	     -0.31850620	      0.13490419	     -0.13490419	      0.31850620	     -0.06449103	      0.52119379	      0.23427302	     -0.23427302	     -0.52119379	      0.06449103	    100.59416257	     75.40917382	     -1.75569935	    -31.80827506	     30.47280496	     82.43125932	      0.34523188	     -0.66690108	      0.37097504	     -0.33345054	     29.42699817	    -23.29426978	     -1.00625795	      6.99632542	     67.74174825	     11.36099423	     68.52157637	     43.52918000	     81.00893415	      1.07365357	     73.15943015	     44.88984154	     78.40704004	    -12.20590931	     82.63668342	     39.97593614	     76.88234230	    -13.95398725	     82.69767327	      5.49935509	      0.00090795	     -0.03109265	     -0.00486257	      0.01459424	     -0.01847809	     -0.00167825	      0.00145926	     -0.06883837	     -0.00669028	      0.01233000	     -0.18235678	     -0.00000970	     -0.00989173	      0.00338414	     -0.00064608	      0.00030987	      0.00012395	      0.00061974	      0.00039663	      0.00118990	      0.00066932	     -0.00000774	     -0.00025459	     -0.00030551	      0.00247175	      0.00867206	      0.00603274	     -0.00808555	      0.01952261	     -0.01851716	      0.00247175	      0.00867206	      0.00603274	      0.00054462	      0.01809822	     -0.00950994	      0.00391915	      0.00482242	      0.01589683	      0.00000000	      0.00760393	      0.00000000	     -0.00708009	     -0.03271923	     -0.00626878	      0.01965781	     -0.00081927	     -0.00839878	     -0.00087977	      0.01474670	     -0.00603274	      0.00242985	      0.02128216	     -0.01759549	     -0.00590706	      0.01277768	     -0.00540433	     -0.01231684	      0.02697975	     -0.03020559	     -0.02312550	      0.01428586	     -0.00724767	     -0.01533321	      0.03116915	     -0.03774651
      0.16666667	     -0.31844618	      0.13487877	     -0.13487877	      0.31844618	     -0.06447887	      0.52109557	      0.23422887	     -0.23422887	     -0.52109557	      0.06447887	    100.61255961	     75.39496309	     -1.75602043	    -31.89509611	     30.47008351	     82.51462160	      0.34555722	     -0.66840298	      0.37123233	     -0.33420149	     29.40276955	    -23.28452667	     -0.98380744	      7.10317883	     67.60333654	     11.39670587	     68.88440389	     43.23310340	     80.93984994	      1.08528243	     73.24521100	     44.74237450	     78.61807989	    -12.21800111	     82.27577152	     40.37187032	     76.85084306	    -13.96261234	     82.89684879	      5.49370182	      0.00090786	     -0.03109234	     -0.00486252	      0.01458631	     -0.01847735	     -0.00166440	      0.00145310	     -0.06884236	     -0.00669700	      0.01233949	     -0.18235404	     -0.00000763	     -0.00990173	      0.00338862	     -0.00064859	      0.00030973	      0.00012389	      0.00061946	      0.00039645	      0.00118936	      0.00066902	     -0.00000770	     -0.00025478	     -0.00030574	      0.00247128	      0.00867043	      0.00603160	     -0.00808402	      0.01951893	     -0.01851367	      0.00247128	      0.00867043	      0.00603160	      0.00054452	      0.01809481	     -0.00950815	      0.00391861	      0.00482151	      0.01589549	      0.00000000	      0.00760104	      0.00000000	     -0.00707876	     -0.03271306	     -0.00626639	      0.01969421	     -0.00082228	     -0.00844289	     -0.00087961	      0.01474392	     -0.00603160	      0.00242940	      0.02127815	     -0.01759217	     -0.00590594	      0.01277527	     -0.00540331	     -0.01231452	      0.02697467	     -0.03019990	     -0.02312114	      0.01428317	     -0.00724630	     -0.01533032	      0.03116328	     -0.03773940
